# xmcd
#
# Track frame offsets:
#	150
#	19910
#	58139
#	83768
#	101016
#	123152
#	154929
#	173237
#	200483
#	228798
#	249567
#	274426
#
# Disc length: 4255 seconds
#
# Revision: 0
# Processed by: cddbd v1.4PL0 Copyright (c) Steve Scherf et al.
# Submitted via: audiograbber 1.82.02
#
DISCID=a1109d0c
DTITLE=Cesaria Evora by - Club Sodade
DYEAR=1900
DGENRE=
TTITLE0=Petit Pays (Chaiteau Flight Remix)
TTITLE1=Angola (Carl Craig's Remix)
TTITLE2=Nho Antone Escaderode (Kerri Chandler Album Mix)
TTITLE3=Besame Mucho (Senor Coconut's Chachacha Remix)
TTITLE4=Bondade e Maldade (Yoruba Soul mix by Osunlade)
TTITLE5=Sodade (DJ Rork and Demon Ritchie mix)
TTITLE6=Negue (Cris Prolific Remix)
TTITLE7=Miss Perfumado (4 nero Remix)
TTITLE8=Angola (Get Down Dur By Pepe Bradock)
TTITLE9=Angola (Bateau Ivre Rework By Pepe Bradrock)
TTITLE10=Nutridinha (Kerri  Chandler album mix)
TTITLE11=Sangue De Beirona (Main Pass by Francois K.)
EXTD=
EXTT0=
EXTT1=
EXTT2=
EXTT3=
EXTT4=
EXTT5=
EXTT6=
EXTT7=
EXTT8=
EXTT9=
EXTT10=
EXTT11=
PLAYORDER=
